<?xml version="1.0" standalone="no"?>
<!DOCTYPE svg PUBLIC "-//W3C//DTD SVG 20010904//EN"
 "http://www.w3.org/TR/2001/REC-SVG-20010904/DTD/svg10.dtd">
<svg version="1.0" xmlns="http://www.w3.org/2000/svg"
 width="512.000000pt" height="512.000000pt" viewBox="0 0 512.000000 512.000000"
 preserveAspectRatio="xMidYMid meet">

<g transform="translate(0.000000,736.000000) scale(0.100000,-0.100000)"
fill="#000000" stroke="none">
<path d="M1980 6890 c-8 -5 -10 -10 -5 -10 6 0 17 5 25 10 8 5 11 10 5 10 -5
0 -17 -5 -25 -10z"/>
<path d="M1930 6870 c-8 -5 -10 -10 -5 -10 6 0 17 5 25 10 8 5 11 10 5 10 -5
0 -17 -5 -25 -10z"/>
<path d="M2690 6870 c8 -5 20 -10 25 -10 6 0 3 5 -5 10 -8 5 -19 10 -25 10 -5
0 -3 -5 5 -10z"/>
<path d="M2740 6850 c8 -5 20 -10 25 -10 6 0 3 5 -5 10 -8 5 -19 10 -25 10 -5
0 -3 -5 5 -10z"/>
<path d="M1864 6834 c-18 -14 -18 -15 4 -4 12 6 22 13 22 15 0 8 -5 6 -26 -11z"/>
<path d="M2780 6836 c0 -3 14 -12 30 -21 17 -9 30 -13 30 -11 0 3 -13 12 -30
21 -16 9 -30 13 -30 11z"/>
<path d="M1680 6720 c-9 -6 -10 -10 -3 -10 6 0 15 5 18 10 8 12 4 12 -15 0z"/>
<path d="M2990 6705 c13 -14 26 -25 28 -25 3 0 -5 11 -18 25 -13 14 -26 25
-28 25 -3 0 5 -11 18 -25z"/>
<path d="M1634 6678 l-19 -23 23 19 c21 18 27 26 19 26 -2 0 -12 -10 -23 -22z"/>
<path d="M3050 6655 c13 -14 26 -25 28 -25 3 0 -5 11 -18 25 -13 14 -26 25
-28 25 -3 0 5 -11 18 -25z"/>
<path d="M2691 6606 c2 -2 15 -9 29 -15 24 -11 24 -11 6 3 -16 13 -49 24 -35
12z"/>
<path d="M2750 6576 c0 -3 9 -10 20 -16 11 -6 20 -8 20 -6 0 3 -9 10 -20 16
-11 6 -20 8 -20 6z"/>
<path d="M3163 6521 c18 -28 36 -50 40 -50 9 -1 -48 85 -63 94 -5 3 6 -17 23
-44z"/>
<path d="M1449 6473 c-13 -16 -12 -17 4 -4 9 7 17 15 17 17 0 8 -8 3 -21 -13z"/>
<path d="M3028 6473 c12 -2 30 -2 40 0 9 3 -1 5 -23 4 -22 0 -30 -2 -17 -4z"/>
<path d="M1424 6438 c-4 -7 -14 -24 -22 -38 -14 -24 -13 -24 3 -5 20 24 37 55
31 55 -3 0 -8 -6 -12 -12z"/>
<path d="M2323 5633 c3 -837 0 -798 69 -938 52 -108 270 -337 301 -318 6 3 7
1 4 -4 -12 -19 136 -107 330 -199 158 -74 181 -86 242 -126 l44 -29 83 21 c45
11 120 26 166 32 l84 11 -51 47 c-79 73 -115 96 -127 79 -8 -11 -9 -10 -4 3 4
13 -10 28 -54 58 -77 52 -388 202 -402 194 -6 -4 -8 -3 -5 3 8 13 -41 36 -55
27 -6 -4 -8 -2 -5 3 4 6 -8 20 -26 30 -17 11 -58 41 -89 66 -53 43 -99 63 -82
35 4 -7 3 -8 -5 -4 -9 6 -9 11 0 22 11 13 5 19 -16 14 -5 -1 -7 1 -3 5 4 4
-15 36 -42 72 -104 135 -100 101 -100 796 l0 587 458 0 457 0 51 -24 c28 -13
55 -29 58 -35 12 -19 29 -12 23 9 -6 22 8 28 16 6 3 -7 0 -19 -6 -26 -9 -10
-9 -14 1 -17 6 -3 12 -11 12 -19 0 -9 3 -13 8 -11 4 3 6 -258 4 -579 l-2 -584
639 2 c404 2 637 0 631 -7 -6 -5 -10 -187 -10 -455 -1 -355 -4 -453 -15 -484
-8 -22 -11 -44 -8 -50 3 -6 3 -8 -2 -4 -7 7 -52 -41 -48 -52 3 -9 -24 -11
-229 -16 l-197 -5 53 -72 c29 -40 58 -82 65 -95 7 -12 17 -20 23 -16 6 4 8 3
4 -4 -3 -6 1 -26 10 -44 l16 -33 116 2 c86 1 132 7 173 21 72 26 142 69 133
84 -4 6 -3 8 3 5 13 -8 46 27 36 38 -5 4 -2 5 4 1 15 -9 63 63 96 144 22 55
22 59 25 678 l3 622 -630 0 -630 0 -4 473 c-3 410 -6 479 -20 522 -48 143
-214 262 -395 286 -37 4 -318 8 -625 9 l-558 0 4 -757z m1397 653 c0 -3 -4 -8
-10 -11 -5 -3 -10 -1 -10 4 0 6 5 11 10 11 6 0 10 -2 10 -4z m87 -102 c-3 -3
-12 -4 -19 -1 -8 3 -5 6 6 6 11 1 17 -2 13 -5z m56 -79 c-3 -9 -8 -14 -10 -11
-3 3 -2 9 2 15 9 16 15 13 8 -4z m-5 -60 c-3 -3 -9 2 -12 12 -6 14 -5 15 5 6
7 -7 10 -15 7 -18z m-1273 -1175 c3 -5 1 -10 -4 -10 -6 0 -11 5 -11 10 0 6 2
10 4 10 3 0 8 -4 11 -10z m-194 -107 c-12 -20 -14 -14 -5 12 4 9 9 14 11 11 3
-2 0 -13 -6 -23z m49 -93 c0 -5 -2 -10 -4 -10 -3 0 -8 5 -11 10 -3 6 -1 10 4
10 6 0 11 -4 11 -10z m45 -30 c3 -5 1 -10 -4 -10 -6 0 -11 5 -11 10 0 6 2 10
4 10 3 0 8 -4 11 -10z m130 -131 c11 -17 -1 -21 -15 -4 -8 9 -8 15 -2 15 6 0
14 -5 17 -11z m-17 -54 c-3 -3 -9 2 -12 12 -6 14 -5 15 5 6 7 -7 10 -15 7 -18z
m478 -32 c-6 -6 -36 9 -36 18 0 5 9 4 20 -3 10 -7 18 -14 16 -15z m-289 -68
c0 -8 -4 -12 -9 -9 -5 3 -6 10 -3 15 9 13 12 11 12 -6z m-13 -34 c-2 -3 -12 3
-22 13 -16 17 -16 18 5 5 12 -7 20 -15 17 -18z m541 -9 c-3 -3 -11 0 -18 7 -9
10 -8 11 6 5 10 -3 15 -9 12 -12z m-60 -2 c3 -6 -1 -7 -9 -4 -18 7 -21 14 -7
14 6 0 13 -4 16 -10z m78 -15 c-3 -9 -8 -14 -10 -11 -3 3 -2 9 2 15 9 16 15
13 8 -4z m32 -15 c3 -5 1 -10 -4 -10 -6 0 -11 5 -11 10 0 6 2 10 4 10 3 0 8
-4 11 -10z m192 -127 c-4 -3 -2 -12 4 -19 7 -8 6 -14 -2 -20 -7 -4 -9 -3 -5 4
3 6 2 13 -4 17 -14 8 -13 25 2 25 6 0 8 -3 5 -7z m-387 -13 c0 -5 -2 -10 -4
-10 -3 0 -8 5 -11 10 -3 6 -1 10 4 10 6 0 11 -4 11 -10z m1984 -130 c4 -25 3
-31 -4 -20 -5 8 -10 26 -10 39 0 32 6 24 14 -19z m-13 -167 c-12 -20 -14 -14
-5 12 4 9 9 14 11 11 3 -2 0 -13 -6 -23z m2 -38 c-3 -9 -8 -14 -10 -11 -3 3
-2 9 2 15 9 16 15 13 8 -4z m-623 -59 c0 -3 -4 -8 -10 -11 -5 -3 -10 -1 -10 4
0 6 5 11 10 11 6 0 10 -2 10 -4z m565 -6 c3 -5 1 -10 -4 -10 -6 0 -11 5 -11
10 0 6 2 10 4 10 3 0 8 -4 11 -10z m-568 -45 c0 -8 -4 -12 -9 -9 -5 3 -6 10
-3 15 9 13 12 11 12 -6z m418 -85 c-3 -5 -12 -10 -18 -10 -7 0 -6 4 3 10 19
12 23 12 15 0z m-77 -68 c8 -6 2 -9 -18 -9 -20 0 -26 3 -18 9 7 4 15 8 18 8 3
0 11 -4 18 -8z"/>
<path d="M1751 6364 c0 -11 3 -14 6 -6 3 7 2 16 -1 19 -3 4 -6 -2 -5 -13z"/>
<path d="M2001 6324 c0 -11 3 -14 6 -6 3 7 2 16 -1 19 -3 4 -6 -2 -5 -13z"/>
<path d="M1762 6310 c0 -14 2 -19 5 -12 2 6 2 18 0 25 -3 6 -5 1 -5 -13z"/>
<path d="M1772 6245 c0 -16 2 -22 5 -12 2 9 2 23 0 30 -3 6 -5 -1 -5 -18z"/>
<path d="M2012 6230 c0 -14 2 -19 5 -12 2 6 2 18 0 25 -3 6 -5 1 -5 -13z"/>
<path d="M1556 6155 c-9 -26 -7 -32 5 -12 6 10 9 21 6 23 -2 3 -7 -2 -11 -11z"/>
<path d="M1292 6090 c0 -14 2 -19 5 -12 2 6 2 18 0 25 -3 6 -5 1 -5 -13z"/>
<path d="M1772 6065 c0 -16 2 -22 5 -12 2 9 2 23 0 30 -3 6 -5 -1 -5 -18z"/>
<path d="M2012 6060 c0 -14 2 -19 5 -12 2 6 2 18 0 25 -3 6 -5 1 -5 -13z"/>
<path d="M1283 6010 c0 -25 2 -35 4 -22 2 12 2 32 0 45 -2 12 -4 2 -4 -23z"/>
<path d="M1521 6024 c0 -11 3 -14 6 -6 3 7 2 16 -1 19 -3 4 -6 -2 -5 -13z"/>
<path d="M3051 6010 c-1 -19 -6 -55 -12 -79 -5 -24 -8 -46 -5 -48 8 -8 28 106
23 134 -3 25 -4 24 -6 -7z"/>
<path d="M3291 6024 c0 -11 3 -14 6 -6 3 7 2 16 -1 19 -3 4 -6 -2 -5 -13z"/>
<path d="M1752 5983 c-15 -48 -8 -55 8 -8 7 20 10 38 8 41 -3 2 -10 -13 -16
-33z"/>
<path d="M2001 5984 c0 -11 3 -14 6 -6 3 7 2 16 -1 19 -3 4 -6 -2 -5 -13z"/>
<path d="M1726 5913 c-6 -14 -5 -15 5 -6 7 7 10 15 7 18 -3 3 -9 -2 -12 -12z"/>
<path d="M1283 5835 c0 -22 2 -30 4 -17 2 12 2 30 0 40 -3 9 -5 -1 -4 -23z"/>
<path d="M1291 5764 c0 -11 3 -14 6 -6 3 7 2 16 -1 19 -3 4 -6 -2 -5 -13z"/>
<path d="M1560 5740 c-9 -6 -10 -10 -3 -10 6 0 15 5 18 10 8 12 4 12 -15 0z"/>
<path d="M1301 5714 c0 -11 3 -14 6 -6 3 7 2 16 -1 19 -3 4 -6 -2 -5 -13z"/>
<path d="M1889 5713 c-13 -16 -12 -17 4 -4 9 7 17 15 17 17 0 8 -8 3 -21 -13z"/>
<path d="M1839 5653 l-34 -38 38 34 c20 19 37 36 37 38 0 8 -8 0 -41 -34z"/>
<path d="M3190 5630 c-11 -22 -18 -40 -15 -40 2 0 14 18 25 40 11 22 18 40 15
40 -2 0 -14 -18 -25 -40z"/>
<path d="M2869 5593 l-24 -28 28 24 c25 23 32 31 24 31 -2 0 -14 -12 -28 -27z"/>
<path d="M1774 5588 l-19 -23 23 19 c21 18 27 26 19 26 -2 0 -12 -10 -23 -22z"/>
<path d="M1390 5464 c0 -13 18 -39 24 -34 2 3 -2 14 -10 24 -8 11 -14 16 -14
10z"/>
<path d="M1498 5453 c7 -3 16 -2 19 1 4 3 -2 6 -13 5 -11 0 -14 -3 -6 -6z"/>
<path d="M1443 5443 c9 -2 23 -2 30 0 6 3 -1 5 -18 5 -16 0 -22 -2 -12 -5z"/>
<path d="M2675 5440 c-3 -5 -1 -10 4 -10 6 0 11 5 11 10 0 6 -2 10 -4 10 -3 0
-8 -4 -11 -10z"/>
<path d="M3039 5413 l-24 -28 28 24 c25 23 32 31 24 31 -2 0 -14 -12 -28 -27z"/>
<path d="M2949 5333 l-24 -28 28 24 c25 23 32 31 24 31 -2 0 -14 -12 -28 -27z"/>
<path d="M2899 5293 c-13 -16 -12 -17 4 -4 9 7 17 15 17 17 0 8 -8 3 -21 -13z"/>
<path d="M2164 5088 l-19 -23 23 19 c21 18 27 26 19 26 -2 0 -12 -10 -23 -22z"/>
<path d="M1327 5069 c-32 -11 -76 -30 -96 -43 -49 -31 -123 -116 -116 -133 2
-8 1 -12 -4 -8 -13 7 -39 -67 -51 -145 -6 -38 -10 -310 -10 -657 l0 -593 615
0 615 0 0 -388 c0 -435 7 -522 52 -632 50 -122 164 -221 293 -254 50 -14 150
-16 672 -16 l613 0 0 693 c0 380 -3 702 -6 714 -8 30 -55 43 -178 50 -95 6
-99 5 -90 -13 5 -11 10 -278 12 -601 l3 -583 -477 0 c-426 0 -476 -2 -470 -16
3 -9 2 -12 -5 -9 -6 4 -8 13 -5 20 3 8 -5 16 -18 19 -22 5 -106 66 -92 66 4 0
-1 15 -11 33 -16 29 -18 76 -23 481 l-5 449 -73 24 c-99 33 -174 79 -259 157
l-71 66 -413 2 -414 3 0 492 c0 380 3 495 13 505 15 15 16 32 0 22 -7 -5 -8
-3 -4 5 5 7 10 10 13 7 3 -3 20 5 37 17 30 21 40 22 303 25 l271 3 1 129 0
130 -282 0 c-256 -1 -287 -3 -340 -21z m150 5 c-3 -3 -12 -4 -19 -1 -8 3 -5 6
6 6 11 1 17 -2 13 -5z m440 -16 c-3 -8 -6 -5 -6 6 -1 11 2 17 5 13 3 -3 4 -12
1 -19z m-643 -67 c3 -4 -4 -7 -14 -6 -27 2 -33 10 -10 12 11 1 22 -2 24 -6z
m-177 -163 c-3 -8 -6 -5 -6 6 -1 11 2 17 5 13 3 -3 4 -12 1 -19z m30 -70 c-3
-7 -5 -2 -5 12 0 14 2 19 5 13 2 -7 2 -19 0 -25z m1034 -1045 c13 -16 12 -17
-3 -4 -10 7 -18 15 -18 17 0 8 8 3 21 -13z m1701 -110 c-3 -16 -7 -22 -10 -15
-4 13 4 42 11 42 2 0 2 -12 -1 -27z m-1582 -73 c0 -5 -2 -10 -4 -10 -3 0 -8 5
-11 10 -3 6 -1 10 4 10 6 0 11 -4 11 -10z m169 -28 c-7 -3 -20 -10 -28 -16
-12 -9 -12 -8 -1 11 8 13 20 19 29 15 13 -5 13 -6 0 -10z m71 -6 c0 -3 -4 -8
-10 -11 -5 -3 -10 -1 -10 4 0 6 5 11 10 11 6 0 10 -2 10 -4z m-128 -1058 c-7
-7 -12 -8 -12 -2 0 6 3 14 7 17 3 4 9 5 12 2 2 -3 -1 -11 -7 -17z m3 -36 c-3
-3 0 -11 6 -19 17 -20 5 -16 -14 5 -15 16 -15 19 -2 19 8 0 13 -3 10 -5z"/>
<path d="M2119 5033 c-13 -16 -12 -17 4 -4 9 7 17 15 17 17 0 8 -8 3 -21 -13z"/>
<path d="M2060 4950 c-6 -11 -8 -20 -6 -20 3 0 10 9 16 20 6 11 8 20 6 20 -3
0 -10 -9 -16 -20z"/>
<path d="M2233 4915 c0 -22 2 -30 4 -17 2 12 2 30 0 40 -3 9 -5 -1 -4 -23z"/>
<path d="M2221 4719 c-6 -18 -11 -37 -10 -43 0 -6 7 7 15 28 8 22 12 41 10 43
-2 2 -9 -10 -15 -28z"/>
<path d="M2201 4644 c0 -11 3 -14 6 -6 3 7 2 16 -1 19 -3 4 -6 -2 -5 -13z"/>
<path d="M1951 4624 c0 -11 3 -14 6 -6 3 7 2 16 -1 19 -3 4 -6 -2 -5 -13z"/>
<path d="M2192 4595 c0 -16 2 -22 5 -12 2 9 2 23 0 30 -3 6 -5 -1 -5 -18z"/>
<path d="M1952 4580 c0 -14 2 -19 5 -12 2 6 2 18 0 25 -3 6 -5 1 -5 -13z"/>
<path d="M2192 4445 c0 -16 2 -22 5 -12 2 9 2 23 0 30 -3 6 -5 -1 -5 -18z"/>
<path d="M1952 4435 c0 -16 2 -22 5 -12 2 9 2 23 0 30 -3 6 -5 -1 -5 -18z"/>
<path d="M2201 4384 c0 -11 3 -14 6 -6 3 7 2 16 -1 19 -3 4 -6 -2 -5 -13z"/>
<path d="M1961 4354 c0 -11 3 -14 6 -6 3 7 2 16 -1 19 -3 4 -6 -2 -5 -13z"/>
<path d="M1971 4314 c0 -11 3 -14 6 -6 3 7 2 16 -1 19 -3 4 -6 -2 -5 -13z"/>
<path d="M2221 4304 c0 -11 3 -14 6 -6 3 7 2 16 -1 19 -3 4 -6 -2 -5 -13z"/>
<path d="M2051 4075 c0 -5 6 -21 14 -35 8 -14 14 -20 14 -15 0 6 -6 21 -14 35
-8 14 -14 21 -14 15z"/>
<path d="M2090 3990 c6 -11 13 -20 16 -20 2 0 0 9 -6 20 -6 11 -13 20 -16 20
-2 0 0 -9 6 -20z"/>
<path d="M3673 3993 c9 -2 25 -2 35 0 9 3 1 5 -18 5 -19 0 -27 -2 -17 -5z"/>
<path d="M2390 3986 c0 -2 8 -10 18 -17 15 -13 16 -12 3 4 -13 16 -21 21 -21
13z"/>
<path d="M3578 3983 c12 -2 30 -2 40 0 9 3 -1 5 -23 4 -22 0 -30 -2 -17 -4z"/>
<path d="M3788 3983 c12 -2 30 -2 40 0 9 3 -1 5 -23 4 -22 0 -30 -2 -17 -4z"/>
<path d="M3508 3973 c7 -3 16 -2 19 1 4 3 -2 6 -13 5 -11 0 -14 -3 -6 -6z"/>
<path d="M3868 3973 c7 -3 16 -2 19 1 4 3 -2 6 -13 5 -11 0 -14 -3 -6 -6z"/>
<path d="M3458 3963 c6 -2 18 -2 25 0 6 3 1 5 -13 5 -14 0 -19 -2 -12 -5z"/>
<path d="M3908 3963 c7 -3 16 -2 19 1 4 3 -2 6 -13 5 -11 0 -14 -3 -6 -6z"/>
<path d="M3335 3930 c-3 -6 1 -7 9 -4 18 7 21 14 7 14 -6 0 -13 -4 -16 -10z"/>
<path d="M4020 3930 c8 -5 20 -10 25 -10 6 0 3 5 -5 10 -8 5 -19 10 -25 10 -5
0 -3 -5 5 -10z"/>
<path d="M4170 3860 c14 -11 30 -23 35 -27 6 -5 19 -15 30 -23 20 -14 20 -14
1 8 -10 12 -35 31 -55 42 -36 20 -36 20 -11 0z"/>
<path d="M3038 3823 c7 -3 16 -2 19 1 4 3 -2 6 -13 5 -11 0 -14 -3 -6 -6z"/>
<path d="M2220 3816 c0 -2 8 -10 18 -17 15 -13 16 -12 3 4 -13 16 -21 21 -21
13z"/>
<path d="M2688 3813 c7 -3 16 -2 19 1 4 3 -2 6 -13 5 -11 0 -14 -3 -6 -6z"/>
<path d="M2998 3813 c7 -3 16 -2 19 1 4 3 -2 6 -13 5 -11 0 -14 -3 -6 -6z"/>
<path d="M2738 3803 c6 -2 18 -2 25 0 6 3 1 5 -13 5 -14 0 -19 -2 -12 -5z"/>
<path d="M2928 3803 c12 -2 30 -2 40 0 9 3 -1 5 -23 4 -22 0 -30 -2 -17 -4z"/>
<path d="M2848 3793 c6 -2 18 -2 25 0 6 3 1 5 -13 5 -14 0 -19 -2 -12 -5z"/>
<path d="M4310 3745 c19 -19 36 -35 39 -35 3 0 -10 16 -29 35 -19 19 -36 35
-39 35 -3 0 10 -16 29 -35z"/>
<path d="M3798 3743 c7 -3 16 -2 19 1 4 3 -2 6 -13 5 -11 0 -14 -3 -6 -6z"/>
<path d="M2310 3736 c0 -2 8 -10 18 -17 15 -13 16 -12 3 4 -13 16 -21 21 -21
13z"/>
<path d="M3488 3723 c7 -3 16 -2 19 1 4 3 -2 6 -13 5 -11 0 -14 -3 -6 -6z"/>
<path d="M2354 3701 c4 -6 16 -16 28 -22 15 -8 18 -8 14 0 -4 6 -16 16 -28 22
-15 8 -18 8 -14 0z"/>
<path d="M3950 3700 c8 -5 20 -10 25 -10 6 0 3 5 -5 10 -8 5 -19 10 -25 10 -5
0 -3 -5 5 -10z"/>
<path d="M3330 3675 c-33 -19 -21 -19 21 0 19 8 27 14 19 14 -8 0 -26 -6 -40
-14z"/>
<path d="M3990 3686 c0 -3 9 -10 20 -16 11 -6 20 -8 20 -6 0 3 -9 10 -20 16
-11 6 -20 8 -20 6z"/>
<path d="M3028 3573 c7 -3 16 -2 19 1 4 3 -2 6 -13 5 -11 0 -14 -3 -6 -6z"/>
<path d="M2728 3563 c6 -2 18 -2 25 0 6 3 1 5 -13 5 -14 0 -19 -2 -12 -5z"/>
<path d="M2948 3563 c6 -2 18 -2 25 0 6 3 1 5 -13 5 -14 0 -19 -2 -12 -5z"/>
<path d="M4195 3510 c10 -11 20 -20 23 -20 3 0 -3 9 -13 20 -10 11 -20 20 -23
20 -3 0 3 -9 13 -20z"/>
<path d="M4341 3214 c0 -11 3 -14 6 -6 3 7 2 16 -1 19 -3 4 -6 -2 -5 -13z"/>
<path d="M4353 3115 c0 -38 2 -53 4 -32 2 20 2 52 0 70 -2 17 -4 1 -4 -38z"/>
<path d="M4592 3135 c0 -16 2 -22 5 -12 2 9 2 23 0 30 -3 6 -5 -1 -5 -18z"/>
<path d="M4342 3010 c0 -14 2 -19 5 -12 2 6 2 18 0 25 -3 6 -5 1 -5 -13z"/>
<path d="M4502 2745 c-12 -25 -20 -45 -17 -45 7 0 47 81 43 86 -3 2 -14 -17
-26 -41z"/>
<path d="M4219 2743 c-13 -16 -12 -17 4 -4 16 13 21 21 13 21 -2 0 -10 -8 -17
-17z"/>
<path d="M4174 2683 c-15 -20 -23 -33 -16 -29 13 8 56 66 49 66 -3 0 -17 -17
-33 -37z"/>
<path d="M4379 2553 c-13 -16 -12 -17 4 -4 16 13 21 21 13 21 -2 0 -10 -8 -17
-17z"/>
<path d="M4043 2541 c-22 -18 -23 -26 -23 -172 0 -84 3 -150 6 -146 3 3 5 70
5 148 -2 134 -1 143 20 165 27 29 23 31 -8 5z"/>
<path d="M4339 2503 l-24 -28 28 24 c25 23 32 31 24 31 -2 0 -14 -12 -28 -27z"/>
<path d="M4199 2363 l-24 -28 28 24 c25 23 32 31 24 31 -2 0 -14 -12 -28 -27z"/>
<path d="M4099 2283 c-13 -16 -12 -17 4 -4 9 7 17 15 17 17 0 8 -8 3 -21 -13z"/>
<path d="M1748 1793 c22 -4 22 -7 22 -153 0 -146 0 -149 -22 -153 -13 -2 24
-4 82 -4 58 0 95 2 83 4 -21 4 -23 10 -23 79 0 71 1 74 23 74 13 0 28 -5 35
-12 9 -9 12 -6 12 17 0 23 -3 26 -12 17 -7 -7 -22 -12 -35 -12 -22 0 -23 4
-23 70 l0 70 39 0 c32 0 44 -6 65 -31 l26 -31 0 36 0 36 -147 -1 c-82 -1 -138
-4 -125 -6z"/>
<path d="M2172 1772 c-6 -17 -7 -34 -2 -38 4 -5 16 -34 25 -64 10 -30 20 -60
22 -67 3 -8 -14 -13 -54 -16 l-58 -3 58 -2 c50 -2 59 -5 66 -24 22 -59 22 -66
4 -71 -10 -3 23 -5 72 -6 50 0 85 3 79 7 -6 4 -33 75 -61 157 l-50 150 -45 3
c-43 3 -46 1 -56 -26z"/>
<path d="M2438 1793 c22 -4 22 -7 22 -153 0 -146 0 -149 -22 -153 -13 -2 22
-4 77 -4 55 -1 92 1 83 4 -15 4 -18 16 -18 79 l0 74 29 0 c27 0 29 -3 35 -54
3 -30 9 -61 12 -70 9 -23 66 -39 98 -27 25 10 36 31 16 31 -5 0 -10 20 -10 45
0 34 -5 48 -23 61 l-23 17 23 23 c23 23 31 76 15 101 -16 25 -67 33 -200 32
-75 -1 -127 -4 -114 -6z m200 -70 c-3 -66 -4 -68 -30 -71 l-28 -3 0 70 0 71
30 0 31 0 -3 -67z"/>
<path d="M2848 1790 c12 -5 22 -16 22 -25 0 -8 4 -15 9 -15 5 0 19 -24 29 -52
66 -173 85 -218 92 -218 4 0 19 33 34 74 l27 73 -34 84 -33 84 -85 2 c-59 2
-77 -1 -61 -7z"/>
<path d="M3129 1793 c0 -5 0 -74 1 -155 2 -146 2 -146 -22 -151 -13 -2 22 -4
77 -4 55 0 90 2 78 4 -23 4 -23 7 -23 153 0 146 0 149 23 153 12 2 -13 5 -55
6 -43 0 -78 -2 -79 -6z"/>
<path d="M3432 1772 c-6 -17 -7 -34 -2 -38 4 -5 16 -34 25 -64 10 -30 20 -60
22 -67 3 -8 -14 -13 -54 -16 l-58 -3 58 -2 c50 -2 59 -5 66 -24 22 -59 22 -66
4 -71 -10 -3 23 -5 72 -6 50 0 85 3 79 7 -6 4 -33 75 -61 157 l-50 150 -45 3
c-43 3 -46 1 -56 -26z"/>
<path d="M3790 1790 c-105 -25 -145 -177 -66 -256 31 -31 105 -60 129 -50 7 2
4 5 -5 5 -29 2 -38 36 -38 148 0 128 5 151 34 156 19 4 19 4 1 5 -11 0 -36 -4
-55 -8z"/>
<path d="M4018 1793 c22 -4 22 -7 22 -153 0 -146 0 -149 -22 -153 -13 -2 24
-4 82 -4 58 0 95 2 83 4 -23 4 -23 7 -23 153 0 146 0 149 23 153 12 2 -25 4
-83 4 -58 0 -95 -2 -82 -4z"/>
<path d="M4352 1772 c-6 -17 -7 -34 -2 -38 4 -5 16 -34 25 -64 10 -30 20 -60
22 -67 3 -8 -14 -13 -54 -16 l-58 -3 58 -2 c50 -2 59 -5 66 -24 22 -59 22 -66
4 -71 -10 -3 23 -5 72 -6 50 0 85 3 79 7 -6 4 -33 75 -61 157 l-50 150 -45 3
c-43 3 -46 1 -56 -26z"/>
<path d="M3929 1782 c-13 -6 -12 -12 8 -41 l23 -34 0 42 c0 42 -3 45 -31 33z"/>
<path d="M2073 1513 l-22 -33 57 1 c31 1 47 4 34 6 -14 3 -29 16 -35 32 l-12
28 -22 -34z"/>
<path d="M3333 1513 l-22 -33 57 1 c31 1 47 4 34 6 -14 3 -29 16 -35 32 l-12
28 -22 -34z"/>
<path d="M4253 1513 l-22 -33 57 1 c31 1 47 4 34 6 -14 3 -29 16 -35 32 l-12
28 -22 -34z"/>
<path d="M2860 1518 c-7 -15 -20 -29 -29 -31 -9 -3 11 -5 44 -5 46 -1 55 1 37
8 -12 5 -26 20 -31 32 l-9 23 -12 -27z"/>
<path d="M1398 1240 c12 -5 22 -16 22 -25 0 -8 4 -15 9 -15 5 0 19 -24 29 -52
66 -173 85 -218 92 -218 4 0 19 33 34 74 l27 73 -34 84 -33 84 -85 2 c-59 2
-77 -1 -61 -7z"/>
<path d="M1679 1243 c0 -5 0 -74 1 -155 2 -146 2 -146 -22 -151 -13 -2 22 -4
77 -4 55 0 90 2 78 4 -23 4 -23 7 -23 153 0 146 0 149 23 153 12 2 -13 5 -55
6 -43 0 -78 -2 -79 -6z"/>
<path d="M1980 1240 c-105 -25 -145 -177 -66 -256 31 -31 105 -60 129 -50 7 2
4 5 -5 5 -29 2 -38 36 -38 148 0 128 5 151 34 156 19 4 19 4 1 5 -11 0 -36 -4
-55 -8z"/>
<path d="M2450 1240 c-105 -25 -145 -177 -66 -256 31 -31 105 -60 129 -50 7 2
4 5 -5 5 -29 2 -38 36 -38 148 0 128 5 151 34 156 19 4 19 4 1 5 -11 0 -36 -4
-55 -8z"/>
<path d="M2678 1243 c22 -4 22 -7 22 -153 0 -146 0 -149 -22 -153 -13 -2 43
-5 125 -6 l147 -1 0 42 c0 41 0 42 -16 20 -18 -26 -65 -52 -94 -52 -19 0 -20
5 -20 149 0 147 0 150 23 154 12 2 -25 4 -83 4 -58 0 -95 -2 -82 -4z"/>
<path d="M2992 1238 c8 -7 36 -52 61 -100 39 -74 47 -97 47 -142 0 -49 -2 -55
-22 -59 -13 -2 24 -4 82 -4 58 0 92 2 77 4 l-28 4 2 79 c1 44 -3 85 -8 92 -11
14 -63 114 -63 122 0 2 8 7 18 9 9 3 -28 5 -82 6 -81 1 -97 -1 -84 -11z"/>
<path d="M3241 1243 c9 -2 20 -13 25 -24 9 -20 10 -20 33 5 l24 26 -49 -1
c-27 -1 -42 -3 -33 -6z"/>
<path d="M3378 1240 c12 -5 22 -16 22 -25 0 -8 4 -15 9 -15 5 0 19 -24 29 -52
66 -173 85 -218 92 -218 4 0 19 33 34 74 l27 73 -34 84 -33 84 -85 2 c-59 2
-77 -1 -61 -7z"/>
<path d="M3659 1243 c0 -5 0 -74 1 -155 2 -146 2 -146 -22 -151 -13 -2 22 -4
77 -4 55 0 90 2 78 4 -23 4 -23 7 -23 153 0 146 0 149 23 153 12 2 -13 5 -55
6 -43 0 -78 -2 -79 -6z"/>
<path d="M3957 1236 c-48 -18 -76 -42 -93 -83 -30 -70 -7 -149 55 -190 64 -43
66 -39 63 103 -5 157 0 176 36 172 l27 -3 0 -145 0 -144 -25 -8 c-15 -4 -7 -5
20 -1 56 7 71 15 104 53 71 86 29 222 -78 249 -55 14 -62 13 -109 -3z"/>
<path d="M4227 1243 c12 -2 25 -14 29 -26 4 -12 13 -26 20 -32 8 -5 51 -64 97
-130 74 -107 86 -120 115 -123 l32 -3 0 65 c0 35 -4 66 -8 68 -5 2 -37 45 -72
96 l-64 92 -86 -1 c-47 -1 -75 -4 -63 -6z"/>
<path d="M4477 1240 c12 -5 25 -16 31 -25 8 -15 12 -14 35 9 l26 26 -57 -1
c-43 0 -52 -2 -35 -9z"/>
<path d="M4591 1198 c0 -46 2 -50 10 -28 14 35 49 70 71 70 17 0 18 -11 18
-149 0 -147 0 -150 -22 -154 -13 -2 24 -4 82 -4 58 0 95 2 83 4 -23 4 -23 7
-23 154 0 138 1 149 18 149 19 0 51 -29 70 -65 10 -17 11 -13 12 28 l0 47
-160 0 -160 0 1 -52z"/>
<path d="M2119 1232 c-13 -6 -12 -12 8 -41 l23 -34 0 42 c0 42 -3 45 -31 33z"/>
<path d="M2589 1232 c-13 -6 -12 -12 8 -41 l23 -34 0 42 c0 42 -3 45 -31 33z"/>
<path d="M4256 976 c-4 -15 -17 -31 -29 -36 -16 -6 -7 -9 38 -8 33 0 52 2 42
5 -10 3 -24 18 -31 35 l-13 30 -7 -26z"/>
<path d="M1410 968 c-7 -15 -20 -29 -29 -31 -9 -3 11 -5 44 -5 46 -1 55 1 37
8 -12 5 -26 20 -31 32 l-9 23 -12 -27z"/>
<path d="M3390 968 c-7 -15 -20 -29 -29 -31 -9 -3 11 -5 44 -5 46 -1 55 1 37
8 -12 5 -26 20 -31 32 l-9 23 -12 -27z"/>
</g>
</svg>
